<?xml version="1.0" encoding="UTF-8"?><svg id="a" xmlns="http://www.w3.org/2000/svg" xmlns:xlink="http://www.w3.org/1999/xlink" viewBox="0 0 256 256"><defs><style>.g{fill:#fff;}.h,.i,.j,.k,.l,.m,.n,.o{fill:none;stroke:#fafafa;}.h,.i,.j,.l{stroke-linejoin:round;}.h,.i,.k,.l,.o{stroke-linecap:round;}.h,.j{stroke-width:10px;}.i{stroke-width:14px;}.p{filter:url(#d);}.q{fill:#202020;}.r{mask:url(#c);}.k{stroke-dasharray:0 16;}.k,.m,.n,.o{stroke-miterlimit:10;}.k,.o{stroke-width:11px;}.l{stroke-width:7px;}.m{stroke-width:28px;}.n{stroke-width:6px;}.s{fill:#fafafa;}</style><filter id="d" x="84" y="102" width="66" height="71" color-interpolation-filters="sRGB" filterUnits="userSpaceOnUse"><feColorMatrix result="cm" values="-1 0 0 0 1 0 -1 0 0 1 0 0 -1 0 1 0 0 0 1 0"/><feFlood flood-color="#fff" result="bg"/><feBlend in="cm" in2="bg"/></filter><mask id="c" x="84" y="102" width="66" height="71" maskUnits="userSpaceOnUse"><g class="p"><rect class="g" x="100" y="102" width="50" height="50"/></g></mask></defs><g id="b"><rect class="q" width="256" height="256" rx="40" ry="40"/><line class="m" x1="36" y1="240" x2="36" y2="16"/><line class="m" x1="220" y1="240" x2="220" y2="16"/><rect class="j" x="67" y="63" width="122" height="128"/><polygon class="s" points="132.33 222 132.33 205 128 205 123.67 205 123.67 222 113 213.33 113 225.67 128 238 143 225.67 143 213.33 132.33 222"/><g class="r"><circle class="n" cx="115" cy="142" r="28"/></g><line class="h" x1="155" y1="155" x2="140" y2="130"/><line class="l" x1="111" y1="113" x2="137" y2="113"/><polyline class="i" points="110 102.78 111 130.78 138 130.78"/><circle class="s" cx="110" cy="85" r="8.5"/><line class="o" x1="164" y1="116" x2="164" y2="116"/><line class="k" x1="164" y1="100" x2="164" y2="92"/><line class="o" x1="164" y1="84" x2="164" y2="84"/></g></svg>