<?xml version="1.0" encoding="UTF-8"?><svg id="a" xmlns="http://www.w3.org/2000/svg" viewBox="0 0 256 256"><defs><style>.e{stroke:#202020;stroke-miterlimit:10;stroke-width:4px;}.e,.f{fill:#fafafa;}.g{fill:#202020;}</style></defs><g id="b"><rect class="g" width="256" height="256" rx="40" ry="40"/><path class="f" d="M230,157c0,.55-.45,1-1,1H27c-.55,0-1-.45-1-1v-67c0-6.63,5.37-12,12-12h180c6.63,0,12,5.37,12,12v67Z"/><circle class="e" cx="70" cy="158" r="21.5"/><circle class="e" cx="186" cy="158" r="21.5"/><rect class="g" x="36" y="89" width="40" height="28" rx="2" ry="2"/><rect class="g" x="84" y="89" width="40" height="28" rx="2" ry="2"/><rect class="g" x="132" y="89" width="40" height="28" rx="2" ry="2"/><rect class="g" x="180" y="89" width="40" height="28" rx="2" ry="2"/></g></svg>