<?xml version="1.0" encoding="UTF-8"?><svg id="a" xmlns="http://www.w3.org/2000/svg" viewBox="0 0 256 256"><defs><style>.e{stroke:#202020;stroke-miterlimit:10;stroke-width:4px;}.e,.f{fill:#fafafa;}.g{fill:#202020;}.h{fill:none;stroke:#fafafa;stroke-linejoin:round;stroke-width:2px;}</style></defs><g id="b"><rect class="g" width="256" height="256" rx="40" ry="40"/><path class="f" d="M230,157c0,.55-.45,1-1,1H27c-.55,0-1-.45-1-1v-67c0-6.63,5.37-12,12-12h180c6.63,0,12,5.37,12,12v67Z"/><circle class="e" cx="70" cy="158" r="21.5"/><circle class="e" cx="186" cy="158" r="21.5"/><rect class="g" x="36" y="89" width="40" height="28" rx="2" ry="2"/><rect class="g" x="84" y="89" width="40" height="28" rx="2" ry="2"/><rect class="g" x="132" y="89" width="40" height="28" rx="2" ry="2"/><rect class="g" x="180" y="89" width="40" height="28" rx="2" ry="2"/><rect class="g" x="100" y="121" width="56" height="33" rx="1.5" ry="1.5"/><path class="h" d="M123,130v-6s2-.5,5-.5,5,.5,5,.5v6"/><rect class="f" x="110" y="127.5" width="36" height="25" rx="4" ry="4"/></g></svg>