<?xml version="1.0" encoding="UTF-8"?><svg id="a" xmlns="http://www.w3.org/2000/svg" viewBox="0 0 256 256"><defs><style>.c{fill:#202020;}.d{stroke:#202020;stroke-miterlimit:10;stroke-width:6px;}.d,.e{fill:#fafafa;}</style></defs><g id="b"><rect class="c" y="0" width="256" height="256" rx="25" ry="25"/><path class="e" d="M196.46,137.5l-.45-95.81c0-.36-.19-.68-.5-.86-10.55-6.06-29.84-17.6-67.51-17.6s-56.96,11.54-67.51,17.6c-.31.18-.49.5-.5.86l-.45,95.81s-.55,20,5.71,36.22c5.74,14.87,15.05,26.28,16.65,28.81.19.29.51.47.86.47h90.46c.35,0,.68-.17.86-.47,1.6-2.53,10.91-13.94,16.65-28.81,6.26-16.22,5.71-36.22,5.71-36.22Z"/><rect class="c" x="73" y="51" width="110" height="48" rx="1" ry="1"/><rect class="c" x="73" y="119" width="32" height="8" rx=".5" ry=".5"/><rect class="c" x="151" y="119" width="32" height="8" rx=".5" ry=".5"/><rect class="d" x="109" y="175" width="38" height="62"/></g></svg>